{"title":"Priya Rai - XXX Bossy MILFs 3@Mastitorrents","uid":5453384,"size":323268608,"categoryP":"porn","categoryS":"movie_clips","magnet":"?xt=urn:btih:501a026ea6ed30dd501a9179e0f9874882c913e2&amp;dn=Priya+Rai+-+XXX+Bossy+MILFs+3%40Mastitorrents&amp;tr=udp%3A%2F%2Ftracker.openbittorrent.com%3A80&amp;tr=udp%3A%2F%2Fopen.demonii.com%3A1337&amp;tr=udp%3A%2F%2Ftracker.coppersurfer.tk%3A6969&amp;tr=udp%3A%2F%2Fexodus.desync.com%3A6969","seeders":0,"leechers":1,"uploader":"amanrulz","files":1,"time":1269257085,"description":"Mastitorrents.com\n &lt;a href=&quot;\nhttp://mastitorrents.com/forums/index.php&quot; rel=&quot;nofollow&quot; target=&quot;_NEW&quot;&gt;\nhttp://mastitorrents.com/forums/index.php&lt;/a&gt;\n\nGeneral\nComplete name                    : Priya Rai - Bossy MILFs 3.avi\nFormat                           : AVI\nFormat/Info                      : Audio Video Interleave\nFile size                        : 308 MiB\nDuration                         : 21mn 17s\n\nVideo\nID                               : 0\nFormat                           : MPEG-4 Visual\nFormat settings, BVOP            : Yes\nFormat settings, QPel            : No\nFormat settings, GMC             : No warppoints\nFormat settings, Matrix          : Default (H.263)\nMuxing mode                      : Packed bitstream\nCodec ID                         : XVID\nCodec ID/Hint                    : XviD\nBit rate                         : 1 885 Kbps\nWidth                            : 576 pixels\nHeight                           : 320 pixels\nDisplay aspect ratio             : 16:9\nFrame rate                       : 29.970 fps\nResolution                       : 8 bits\nColorimetry                      : 4:2:0\nScan type                        : Progressive\nBits/(Pixel*Frame)               : 0.341\nStream size                      : 287 MiB (93%)\nWriting library                  : XviD 1.2.1 (UTC 2008-12-04)\n\nAudio\nID                               : 1\nFormat                           : MPEG Audio\nFormat version                   : Version 1\nFormat profile                   : Layer 3\nMode                             : Joint stereo\nFormat_Settings_ModeExtension    : MS Stereo\nCodec ID                         : 55\nCodec ID/Hint                    : MP3\nBit rate mode                    : Variable\nBit rate                         : 123 Kbps\nChannel(s)                       : 2 channels\nSampling rate                    : 48.0 KHz\nStream size                      : 18.9 MiB (6%)\nInterleave, duration             : 24 ms (0.72 video frame)\nInterleave, preload duration     : 438 ms","torrent":{"xt":"urn:btih:501a026ea6ed30dd501a9179e0f9874882c913e2","amp;dn":"Priya+Rai+-+XXX+Bossy+MILFs+3%40Mastitorrents","amp;tr":["udp%3A%2F%2Ftracker.openbittorrent.com%3A80","udp%3A%2F%2Fopen.demonii.com%3A1337","udp%3A%2F%2Ftracker.coppersurfer.tk%3A6969","udp%3A%2F%2Fexodus.desync.com%3A6969"],"infoHash":"501a026ea6ed30dd501a9179e0f9874882c913e2","infoHashBuffer":{"type":"Buffer","data":[80,26,2,110,166,237,48,221,80,26,145,121,224,249,135,72,130,201,19,226]},"announce":[],"urlList":[]}}